<svg width="24" height="31" viewBox="0 0 24 31" fill="none" xmlns="http://www.w3.org/2000/svg">
<path d="M0 0H11.8656C18.5834 0 21.9057 3.4319 21.9057 8.0321C21.9057 11.7926 19.4961 13.9101 16.4658 14.6038V14.8959C19.7517 15.0784 23.1105 17.8167 23.1105 22.5264C23.1105 27.2361 19.6421 30.9601 12.5593 30.9601H0V0ZM16.3563 8.72578C16.3563 6.31615 14.6403 4.63671 11.318 4.63671H5.58596V13.1799H11.2084C14.1657 13.1799 16.3928 11.464 16.3928 8.72578H16.3563ZM17.4516 22.1248C17.4516 19.3501 15.261 17.196 11.7926 17.196H5.54945V26.3234H11.6831C15.7356 26.3234 17.4516 24.5709 17.4516 22.1248Z" fill="white"/>
</svg>
