<svg width="35" height="35" viewBox="0 0 35 35" fill="none" xmlns="http://www.w3.org/2000/svg">
<path d="M30.3333 1H4.66667C2.64162 1 1 2.64162 1 4.66667V30.3333C1 32.3584 2.64162 34 4.66667 34H30.3333C32.3584 34 34 32.3584 34 30.3333V4.66667C34 2.64162 32.3584 1 30.3333 1Z" stroke="white" stroke-width="2" stroke-linecap="round" stroke-linejoin="round"/>
<path d="M11.082 13.832C12.6008 13.832 13.832 12.6008 13.832 11.082C13.832 9.56325 12.6008 8.33203 11.082 8.33203C9.56325 8.33203 8.33203 9.56325 8.33203 11.082C8.33203 12.6008 9.56325 13.832 11.082 13.832Z" stroke="white" stroke-width="2" stroke-linecap="round" stroke-linejoin="round"/>
<path d="M33.9993 22.9997L24.8327 13.833L4.66602 33.9997" stroke="white" stroke-width="2" stroke-linecap="round" stroke-linejoin="round"/>
</svg>
