<svg width="33" height="32" viewBox="0 0 33 32" fill="none" xmlns="http://www.w3.org/2000/svg">
<path d="M32.9833 14.5967H0V15.7167H32.9833V14.5967Z" fill="white"/>
<path d="M5.44552 1.00418L6.1021 0L5.2138 7.56994H4.09375L4.55721 0H29.2754L29.7389 7.56994H28.6188L27.7305 0L28.3871 1.00418H5.4069H5.44552ZM17.2639 30.0867L23.1345 30.3956V31.3226H10.7368V30.3956L16.6073 30.0867H17.2639ZM16.2211 14.3674C16.2211 9.53967 16.2211 4.75053 16.1439 0H17.7274C17.6501 4.7119 17.6501 9.53967 17.6501 14.3674V16.9938C17.6501 21.8215 17.6501 26.6107 17.7274 31.3612H16.1439C16.2211 26.6493 16.2211 21.8215 16.2211 16.9938V14.3674Z" fill="white"/>
</svg>
