<svg width="27" height="27" viewBox="0 0 27 27" fill="none" xmlns="http://www.w3.org/2000/svg">
<path d="M23.5 9.75H12.25C10.8693 9.75 9.75 10.8693 9.75 12.25V23.5C9.75 24.8807 10.8693 26 12.25 26H23.5C24.8807 26 26 24.8807 26 23.5V12.25C26 10.8693 24.8807 9.75 23.5 9.75Z" stroke="#F0F0F0" stroke-width="2" stroke-linecap="round" stroke-linejoin="round"/>
<path d="M4.75 17.25H3.5C2.83696 17.25 2.20107 16.9866 1.73223 16.5178C1.26339 16.0489 1 15.413 1 14.75V3.5C1 2.83696 1.26339 2.20107 1.73223 1.73223C2.20107 1.26339 2.83696 1 3.5 1H14.75C15.413 1 16.0489 1.26339 16.5178 1.73223C16.9866 2.20107 17.25 2.83696 17.25 3.5V4.75" stroke="#F0F0F0" stroke-width="2" stroke-linecap="round" stroke-linejoin="round"/>
</svg>
