<svg width="19" height="19" viewBox="0 0 19 19" fill="none" xmlns="http://www.w3.org/2000/svg">
<path d="M8.46439 2.65234H2.55014C2.10198 2.65234 1.67217 2.83037 1.35528 3.14727C1.03838 3.46417 0.860352 3.89397 0.860352 4.34213V16.1706C0.860352 16.6188 1.03838 17.0486 1.35528 17.3655C1.67217 17.6824 2.10198 17.8604 2.55014 17.8604H14.3786C14.8268 17.8604 15.2566 17.6824 15.5735 17.3655C15.8904 17.0486 16.0684 16.6188 16.0684 16.1706V10.2564" stroke="white" stroke-width="1.71985" stroke-linecap="round" stroke-linejoin="round"/>
<path d="M14.8011 1.3853C15.1372 1.04918 15.5931 0.860352 16.0684 0.860352C16.5437 0.860352 16.9996 1.04918 17.3357 1.3853C17.6719 1.72142 17.8607 2.1773 17.8607 2.65264C17.8607 3.12798 17.6719 3.58386 17.3357 3.91998L9.30926 11.9465L5.92969 12.7914L6.77458 9.41178L14.8011 1.3853Z" stroke="white" stroke-width="1.71985" stroke-linecap="round" stroke-linejoin="round"/>
</svg>
