<svg width="183" height="62" viewBox="0 0 183 62" fill="none" xmlns="http://www.w3.org/2000/svg">
<path d="M9.7522 34.5829C15.848 28.3401 34.2454 35.0793 42.6311 36.0956C50.409 37.0374 57.7919 36.5956 63.4807 32.1972C63.0668 33.7328 62.6926 35.53 62.4778 37.5497C62.3098 39.1406 62.2659 40.6065 62.2971 41.9159C59.5267 42.1544 55.4899 42.3108 50.6682 41.8026C48.3901 41.5603 44.8734 41.0563 40.6965 39.9149C40.1925 39.7781 39.7113 39.6416 39.2385 39.5087C39.258 39.8995 39.2424 40.3571 39.1448 40.8651C39.0963 41.1137 39.0334 41.3457 38.9622 41.5614C42.48 41.4527 46.3 41.7527 50.3137 42.5448L46.1633 44.1982C56.5771 45.0073 56.6358 49.781 54.3069 54.0224C48.4216 64.729 16.4978 64.6894 17.8342 53.5644C18.5349 47.7296 25.2455 43.0969 35.0461 41.8632C35.173 41.2213 35.2374 40.1954 34.7375 39.0976C34.5109 38.6051 34.222 38.2022 33.9211 37.8817C28.4857 36.1148 25.7223 34.9618 21.7561 34.9853C17.2353 35.0128 16.4813 39.5316 22.0413 38.6015C20.1342 47.6976 3.09384 41.4081 9.7522 34.5829ZM166.519 2.8212C166.171 21.1664 166.241 39.7267 166.761 58.498C166.784 59.3501 166.808 60.1985 166.835 61.0468C163.342 61.0624 159.852 61.0819 156.359 61.0976C157.253 52.5133 157.871 43.0336 157.969 32.7802C158.067 22.6989 157.652 13.3565 156.948 4.87003C158.226 4.92084 159.883 4.86152 161.775 4.46671C163.732 4.05625 165.335 3.40754 166.515 2.8212H166.519ZM38.4075 43.0146C37.0127 43.0927 35.9888 43.4675 35.551 43.6317C29.1543 46.0241 27.1258 54.8668 28.4192 58.0136C30.0879 62.071 36.7742 62.1453 41.1936 58.0878C43.9641 55.543 46.289 50.3551 44.1985 47.9823C42.9285 46.5438 40.8257 45.9731 37.1331 46.5673C37.2231 46.4186 38.0757 45.1057 41.0725 44.5429C42.0968 44.352 43.0511 44.3087 43.7112 44.3046C43.1854 43.9904 41.1589 42.8628 38.4075 43.0146ZM80.0042 52.744C81.0517 44.3319 95.2239 38.4526 113.206 41.8769H113.202L108.963 43.5067C119.607 44.3043 119.666 49.0155 117.286 53.1942C111.268 63.7564 78.6365 63.7167 80.0042 52.744ZM101.027 42.3349C99.6005 42.413 98.5571 42.7839 98.1077 42.9442C91.5667 45.3013 89.4953 54.0256 90.8196 57.1298C92.5272 61.1326 99.362 61.2077 103.875 57.205C106.704 54.6954 109.084 49.5778 106.947 47.2401C105.649 45.8212 103.5 45.2583 99.7249 45.8446C99.8147 45.7 100.687 44.4027 103.75 43.8476C104.801 43.656 105.778 43.6122 106.454 43.6122H106.458C105.931 43.3073 103.852 42.1864 101.027 42.3349ZM124.73 32.456C123.358 16.5032 132.881 5.35091 147.792 11.8358H147.796L144.912 14.9315C153.423 16.4404 154.693 25.3731 153.923 33.2968C151.981 53.3264 126.519 53.2677 124.73 32.456ZM142.983 15.1308C142.485 14.5501 140.578 12.4262 138.418 12.7148C137.328 12.8594 136.609 13.5671 136.3 13.872C131.814 18.3439 132.471 34.8912 134.312 40.7743C136.684 48.3618 142.033 48.5024 144.514 40.911C146.069 36.1537 146.593 26.4513 144.315 22.0107C142.935 19.3215 141.11 18.258 138.321 19.3681C138.356 19.0928 138.697 16.6321 140.939 15.5771C141.707 15.2143 142.455 15.135 142.983 15.1308ZM117.821 43.1317C116.195 42.1037 113.787 41.224 110.849 40.5829C110.884 40.3093 110.919 40.0353 110.95 39.7577C111.603 33.9373 111.81 28.2498 111.65 22.7069C110.931 23.2736 110.185 24.0162 109.548 24.9853C108.821 26.0954 108.469 27.1517 108.285 27.9296V40.1064C106.046 39.7546 103.585 39.5312 100.987 39.4569C101.127 39.0387 101.303 38.4993 101.483 37.87C102.827 33.1871 102.811 29.5047 102.76 25.3417H102.756C102.729 23.1839 102.573 18.5002 101.405 12.6249C101.096 11.0575 100.779 9.75152 100.536 8.80948C103.279 8.99711 105.714 8.74373 108.285 7.71573V21.7411C109.458 20.846 110.606 20.4395 111.552 20.2675C111.325 15.6743 110.853 11.1866 110.169 6.82022C111.603 6.78113 113.197 6.64848 114.916 6.3671C115.948 6.1951 116.918 5.98738 117.821 5.76065V43.1317ZM66.8079 8.5878C73.9821 5.47624 86.6148 13.9345 94.3049 9.20108C94.9614 8.79845 95.4308 8.38777 95.6848 8.15323C96.2162 10.0257 97.7399 11.5351 99.3381 12.8134C99.1624 13.0087 98.9787 13.1884 98.7834 13.3564C94.36 17.1325 84.8997 13.532 81.9065 12.2929V36.7753C84.2042 36.5486 87.2212 37.0841 89.4094 36.7753C90.6795 36.5993 93.9579 35.3645 94.3918 33.078C94.5208 32.4018 94.3597 31.7912 94.1799 31.3495C95.954 30.4504 98.0799 30.6856 99.385 31.87C101.089 33.418 100.651 35.9121 99.7092 37.2255C99.1661 37.9797 98.3694 38.6208 97.3147 39.0194L97.3186 39.0155C93.3524 40.5166 86.4783 38.6876 82.1252 38.4804C78.6633 38.3162 75.2092 38.6521 71.7708 38.8358C72.2865 38.398 73.1847 37.5221 73.7356 36.1464C74.1068 35.2239 74.1887 34.3988 74.1965 33.8358C74.1379 26.6432 74.0833 19.4504 74.0247 12.2577C73.3875 9.74828 69.035 8.34116 67.1165 10.5692C64.8345 13.2195 69.7417 14.4702 71.3557 11.9413C72.3247 13.3641 72.4075 15.0801 71.552 16.2724C70.2977 18.0197 67.4911 18.0006 65.7405 17.0624C63.5213 15.8779 62.9553 13.1925 63.6428 11.414C63.9046 10.7338 64.5923 9.54942 66.8079 8.5878ZM10.5745 8.21573C13.2588 5.7493 18.2249 6.93702 20.1594 7.3671C26.9899 8.88381 38.3848 10.0257 58.8411 9.44327C58.7317 9.5019 58.1888 9.81095 57.9856 10.4833C57.7786 11.1712 58.0793 11.7264 58.1379 11.828C59.4663 14.1538 59.5637 16.0578 59.4895 17.1562C59.1532 22.2573 54.0073 26.9947 46.5872 28.7343C48.2674 28.789 50.8969 28.6714 53.8899 27.6747C56.3009 26.8694 58.1258 25.7671 59.3411 24.8915C59.1222 25.4544 58.9192 26.1117 58.7942 26.8583C58.4074 29.1411 58.9073 31.0606 59.3215 32.1982C53.0499 33.6484 48.0366 33.5461 44.5393 33.1552C36.7398 32.2796 31.8355 29.4341 22.4182 29.9032C20.23 30.0127 18.4362 30.2703 17.2444 30.4735C17.4202 30.3915 17.8039 30.177 18.0579 29.7431C18.1868 29.5281 18.2414 29.3242 18.2688 29.1757C18.3197 27.8283 18.8001 14.3299 18.2688 12.0741C18.089 11.3197 17.4163 10.7567 17.4163 10.7567C15.861 8.98604 12.9068 7.99339 11.8987 8.94717C11.1958 9.61202 11.3566 11.308 12.2825 12.2616C12.8724 12.8673 13.6104 13.0086 13.8333 13.0439C15.3763 13.2979 16.5836 12.2505 16.7756 12.078C17.1429 13.7432 16.6079 15.3928 15.4006 16.2841H15.3967C13.5875 17.6249 10.9108 16.7763 9.67212 15.3847C7.8903 13.3754 8.76917 9.86925 10.5745 8.21573ZM63.4807 32.1972L63.4817 32.1942H63.4856C63.4842 32.1954 63.4822 32.1961 63.4807 32.1972ZM89.5481 18.3651C90.9409 22.3213 92.0724 23.4011 96.2063 24.7333C92.0724 26.0655 90.9409 27.1504 89.5481 31.1015C88.1553 27.1454 87.0247 26.0655 82.8909 24.7333C87.0246 23.4012 88.1554 22.316 89.5481 18.3651ZM25.1848 27.0849C29.3034 27.2803 32.8479 27.3466 35.6887 27.3622C37.3377 27.37 39.1782 27.3626 41.5227 26.8192C42.5113 26.5886 43.9217 26.2914 45.4417 25.494C46.5436 24.9116 51.5302 22.2924 52.1321 17.4374C52.3509 15.6862 51.9203 14.2047 51.5569 13.2743C51.5114 13.2781 47.64 13.5952 45.387 13.7118C41.7452 13.8994 38.9316 13.7393 36.9075 13.6142C33.7541 13.4187 29.7644 13.0005 25.1848 12.078V27.0849Z" fill="url(#paint0_linear_1923_10372)"/>
<path d="M174.096 0.000152588L174.735 4.80027L178.616 5.59092L174.735 6.38158L174.096 11.1817L173.457 6.38158L169.576 5.59092L173.457 4.80027L174.096 0.000152588Z" fill="white"/>
<path d="M176.237 2.94288L174.702 5.59114L176.237 8.2394L174.096 6.34018L171.955 8.23938L173.491 5.59113L171.955 2.94287L174.096 4.84209L176.237 2.94288Z" fill="white"/>
<path d="M72.7224 10.9541L71.7962 12.2549L72.7312 13.5494L71.4304 12.6231L70.1359 13.5581L71.0621 12.2573L70.1271 10.9628L71.4279 11.8891L72.7224 10.9541Z" fill="white"/>
<path d="M174.839 14.9953L173.908 16.2929L174.839 17.5906L173.541 16.66L172.243 17.5906L173.174 16.2929L172.243 14.9953L173.541 15.9259L174.839 14.9953Z" fill="white"/>
<path d="M6.57514 0.00012207L7.23376 3.76346L11.2323 4.38334L7.23376 5.00322L6.57514 8.76656L5.91652 5.00322L1.91797 4.38334L5.91652 3.76346L6.57514 0.00012207Z" fill="white"/>
<path d="M8.78099 2.30723L7.19892 4.38348L8.781 6.45975L6.57497 4.97074L4.36894 6.45974L5.95101 4.38348L4.36893 2.30721L6.57496 3.79623L8.78099 2.30723Z" fill="white"/>
<path d="M2.19161 6.84866L2.50155 8.73033L4.38322 9.04027L2.50155 9.35021L2.19161 11.2319L1.88167 9.35021L0 9.04027L1.88167 8.73033L2.19161 6.84866Z" fill="white"/>
<path d="M3.22978 8.00218L2.48529 9.04031L3.22979 10.0784L2.19166 9.33394L1.15353 10.0784L1.89803 9.04031L1.15352 8.00218L2.19166 8.74668L3.22978 8.00218Z" fill="white"/>
<path d="M179.987 8.21869L180.413 10.6884L183 11.0952L180.413 11.502L179.987 13.9717L179.56 11.502L176.973 11.0952L179.56 10.6884L179.987 8.21869Z" fill="white"/>
<path d="M181.414 9.73267L180.39 11.0952L181.414 12.4578L179.986 11.4806L178.559 12.4578L179.583 11.0952L178.559 9.73266L179.986 10.7098L181.414 9.73267Z" fill="white"/>
<defs>
<linearGradient id="paint0_linear_1923_10372" x1="87.5262" y1="2.8212" x2="87.5262" y2="61.9813" gradientUnits="userSpaceOnUse">
<stop stop-color="white"/>
<stop offset="1" stop-color="white"/>
</linearGradient>
</defs>
</svg>
