<svg width="183" height="62" viewBox="0 0 183 62" fill="none" xmlns="http://www.w3.org/2000/svg">
<path d="M9.75244 34.583C15.8483 28.3402 34.2457 35.0793 42.6313 36.0957C50.4092 37.0375 57.7922 36.5957 63.481 32.1973C63.0671 33.7329 62.6928 35.5301 62.478 37.5498C62.31 39.1406 62.2661 40.6066 62.2974 41.916C59.5269 42.1544 55.4902 42.3109 50.6685 41.8027C48.3903 41.5604 44.8737 41.0564 40.6968 39.915C40.1927 39.7782 39.7116 39.6417 39.2388 39.5088C39.2583 39.8996 39.2427 40.3572 39.145 40.8652C39.0966 41.1138 39.0336 41.3458 38.9624 41.5615C42.4802 41.4528 46.3003 41.7528 50.314 42.5449L46.1636 44.1982C56.5773 45.0074 56.6361 49.7811 54.3071 54.0225C48.4218 64.729 16.4981 64.6895 17.8345 53.5645C18.5351 47.7297 25.2457 43.097 35.0464 41.8633C35.1733 41.2214 35.2377 40.1955 34.7378 39.0977C34.5112 38.6052 34.2222 38.2023 33.9214 37.8818C28.4859 36.1149 25.7225 34.9619 21.7563 34.9854C17.2356 35.0129 16.4815 39.5316 22.0415 38.6016C20.1344 47.6977 3.09408 41.4082 9.75244 34.583ZM166.519 2.82129C166.171 21.1665 166.242 39.7268 166.761 58.498C166.785 59.3502 166.808 60.1986 166.835 61.0469C163.342 61.0625 159.852 61.082 156.359 61.0977C157.254 52.5134 157.872 43.0337 157.969 32.7803C158.067 22.699 157.652 13.3565 156.949 4.87012C158.227 4.92093 159.884 4.86161 161.775 4.4668C163.733 4.05634 165.335 3.40764 166.515 2.82129H166.519ZM38.4077 43.0146C37.013 43.0928 35.9891 43.4676 35.5513 43.6318C29.1545 46.0242 27.126 54.8669 28.4194 58.0137C30.0881 62.0711 36.7744 62.1454 41.1938 58.0879C43.9643 55.5431 46.2893 50.3552 44.1987 47.9824C42.9288 46.5439 40.8259 45.9732 37.1333 46.5674C37.2233 46.4186 38.0759 45.1058 41.0728 44.543C42.097 44.3521 43.0513 44.3088 43.7114 44.3047C43.1856 43.9905 41.1592 42.8629 38.4077 43.0146ZM80.0044 52.7441C81.0519 44.332 95.2241 38.4527 113.207 41.877H113.203L108.963 43.5068C119.607 44.3044 119.666 49.0156 117.287 53.1943C111.269 63.7565 78.6367 63.7168 80.0044 52.7441ZM101.027 42.335C99.6007 42.4131 98.5574 42.784 98.1079 42.9443C91.5669 45.3014 89.4956 54.0257 90.8198 57.1299C92.5274 61.1327 99.3622 61.2078 103.875 57.2051C106.705 54.6955 109.084 49.5779 106.947 47.2402C105.649 45.8213 103.5 45.2584 99.7251 45.8447C99.815 45.7001 100.687 44.4027 103.75 43.8477C104.802 43.6561 105.779 43.6123 106.455 43.6123H106.458C105.931 43.3074 103.852 42.1865 101.027 42.335ZM124.73 32.4561C123.358 16.5033 132.881 5.351 147.792 11.8359H147.796L144.913 14.9316C153.423 16.4405 154.693 25.3732 153.923 33.2969C151.981 53.3265 126.52 53.2678 124.73 32.4561ZM142.983 15.1309C142.485 14.5502 140.578 12.4263 138.418 12.7148C137.328 12.8595 136.609 13.5672 136.3 13.8721C131.814 18.344 132.472 34.8913 134.312 40.7744C136.684 48.3619 142.033 48.5025 144.514 40.9111C146.069 36.1538 146.593 26.4514 144.315 22.0107C142.936 19.3215 141.111 18.2581 138.321 19.3682C138.356 19.0928 138.697 16.6322 140.939 15.5771C141.707 15.2144 142.456 15.1351 142.983 15.1309ZM117.821 43.1318C116.195 42.1038 113.788 41.2241 110.849 40.583C110.884 40.3094 110.919 40.0354 110.951 39.7578C111.603 33.9374 111.81 28.2499 111.65 22.707C110.931 23.2737 110.185 24.0163 109.548 24.9854C108.822 26.0955 108.469 27.1518 108.286 27.9297V40.1064C106.047 39.7547 103.585 39.5313 100.987 39.457C101.127 39.0388 101.303 38.4994 101.483 37.8701C102.827 33.1872 102.811 29.5048 102.76 25.3418H102.756C102.729 23.184 102.573 18.5003 101.405 12.625C101.096 11.0576 100.779 9.75161 100.537 8.80957C103.28 8.9972 105.715 8.74382 108.286 7.71582V21.7412C109.458 20.8461 110.607 20.4396 111.552 20.2676C111.326 15.6744 110.853 11.1867 110.169 6.82031C111.603 6.78122 113.197 6.64857 114.917 6.36719C115.948 6.19519 116.918 5.98747 117.821 5.76074V43.1318ZM66.8081 8.58789C73.9823 5.47633 86.615 13.9345 94.3052 9.20117C94.9616 8.79854 95.4311 8.38786 95.6851 8.15332C96.2165 10.0258 97.7402 11.5352 99.3384 12.8135C99.1626 13.0088 98.979 13.1885 98.7837 13.3564C94.3603 17.1326 84.8999 13.5321 81.9067 12.293V36.7754C84.2044 36.5487 87.2214 37.0842 89.4097 36.7754C90.6797 36.5994 93.9581 35.3646 94.3921 33.0781C94.521 32.4019 94.3599 31.7913 94.1802 31.3496C95.9542 30.4505 98.0801 30.6857 99.3853 31.8701C101.089 33.4181 100.651 35.9121 99.7095 37.2256C99.1664 37.9798 98.3696 38.6209 97.3149 39.0195L97.3188 39.0156C93.3526 40.5167 86.4785 38.6876 82.1255 38.4805C78.6636 38.3163 75.2095 38.6522 71.771 38.8359C72.2868 38.3981 73.1849 37.5222 73.7358 36.1465C74.1071 35.2239 74.189 34.3988 74.1968 33.8359C74.1382 26.6433 74.0835 19.4505 74.0249 12.2578C73.3877 9.74837 69.0353 8.34125 67.1167 10.5693C64.8347 13.2196 69.742 14.4703 71.356 11.9414C72.325 13.3642 72.4078 15.0802 71.5522 16.2725C70.2979 18.0198 67.4913 18.0007 65.7407 17.0625C63.5215 15.878 62.9555 13.1926 63.6431 11.4141C63.9049 10.7339 64.5925 9.54952 66.8081 8.58789ZM10.5747 8.21582C13.259 5.7494 18.2251 6.93711 20.1597 7.36719C26.9901 8.8839 38.3851 10.0258 58.8413 9.44336C58.7319 9.502 58.189 9.81104 57.9858 10.4834C57.7788 11.1713 58.0796 11.7265 58.1382 11.8281C59.4666 14.1539 59.564 16.0579 59.4897 17.1562C59.1535 22.2574 54.0075 26.9948 46.5874 28.7344C48.2677 28.7891 50.8972 28.6715 53.8901 27.6748C56.3011 26.8695 58.126 25.7672 59.3413 24.8916C59.1225 25.4545 58.9195 26.1118 58.7944 26.8584C58.4076 29.1412 58.9076 31.0607 59.3218 32.1982C53.0502 33.6485 48.0368 33.5462 44.5396 33.1553C36.74 32.2796 31.8357 29.4342 22.4185 29.9033C20.2303 30.0128 18.4364 30.2704 17.2446 30.4736C17.4205 30.3915 17.8041 30.1771 18.0581 29.7432C18.187 29.5282 18.2417 29.3243 18.269 29.1758C18.3199 27.8284 18.8003 14.33 18.269 12.0742C18.0893 11.3198 17.4165 10.7568 17.4165 10.7568C15.8612 8.98613 12.9071 7.99348 11.8989 8.94727C11.1961 9.61211 11.3568 11.3081 12.2827 12.2617C12.8726 12.8674 13.6107 13.0087 13.8335 13.0439C15.3766 13.298 16.5839 12.2506 16.7759 12.0781C17.1431 13.7433 16.6082 15.3929 15.4009 16.2842H15.397C13.5878 17.625 10.9111 16.7764 9.67236 15.3848C7.89054 13.3755 8.76941 9.86935 10.5747 8.21582ZM63.481 32.1973L63.4819 32.1943H63.4858C63.4844 32.1954 63.4824 32.1962 63.481 32.1973ZM89.5483 18.3652C90.9411 22.3214 92.0727 23.4012 96.2065 24.7334C92.0727 26.0656 90.9411 27.1505 89.5483 31.1016C88.1556 27.1455 87.0249 26.0656 82.8911 24.7334C87.0249 23.4013 88.1556 22.3161 89.5483 18.3652ZM25.1851 27.085C29.3037 27.2804 32.8481 27.3467 35.689 27.3623C37.3379 27.3701 39.1785 27.3627 41.5229 26.8193C42.5115 26.5887 43.922 26.2915 45.4419 25.4941C46.5438 24.9117 51.5305 22.2925 52.1323 17.4375C52.3511 15.6863 51.9205 14.2048 51.5571 13.2744C51.5117 13.2781 47.6403 13.5953 45.3872 13.7119C41.7454 13.8995 38.9318 13.7393 36.9077 13.6143C33.7543 13.4188 29.7646 13.0006 25.1851 12.0781V27.085Z" fill="url(#paint0_linear_2164_1993)"/>
<path d="M72.7224 10.9539L71.7962 12.2547L72.7312 13.5492L71.4304 12.623L70.1359 13.558L71.0621 12.2572L70.1271 10.9627L71.4279 11.8889L72.7224 10.9539Z" fill="url(#paint1_linear_2164_1993)"/>
<path d="M174.096 0L174.736 4.80011L178.617 5.59077L174.736 6.38142L174.096 11.1815L173.457 6.38142L169.576 5.59077L173.457 4.80011L174.096 0Z" fill="url(#paint2_linear_2164_1993)"/>
<path d="M176.237 2.9427L174.702 5.59095L176.237 8.23922L174.096 6.33999L171.955 8.2392L173.491 5.59095L171.955 2.94268L174.096 4.84191L176.237 2.9427Z" fill="url(#paint3_linear_2164_1993)"/>
<path d="M174.839 14.9954L173.908 16.2931L174.839 17.5908L173.541 16.6601L172.243 17.5907L173.174 16.2931L172.243 14.9954L173.541 15.926L174.839 14.9954Z" fill="url(#paint4_linear_2164_1993)"/>
<path d="M6.57514 0L7.23376 3.76334L11.2323 4.38322L7.23376 5.0031L6.57514 8.76644L5.91652 5.0031L1.91797 4.38322L5.91652 3.76334L6.57514 0Z" fill="url(#paint5_linear_2164_1993)"/>
<path d="M8.78123 2.30723L7.19917 4.38348L8.78125 6.45975L6.57521 4.97074L4.36919 6.45974L5.95125 4.38348L4.36917 2.30721L6.57521 3.79623L8.78123 2.30723Z" fill="url(#paint6_linear_2164_1993)"/>
<path d="M2.19161 6.84863L2.50155 8.7303L4.38322 9.04024L2.50155 9.35018L2.19161 11.2319L1.88167 9.35018L0 9.04024L1.88167 8.7303L2.19161 6.84863Z" fill="url(#paint7_linear_2164_1993)"/>
<path d="M3.23003 8.002L2.48553 9.04013L3.23004 10.0783L2.1919 9.33376L1.15377 10.0783L1.89827 9.04013L1.15377 8.00199L2.1919 8.7465L3.23003 8.002Z" fill="url(#paint8_linear_2164_1993)"/>
<path d="M179.987 8.21875L180.413 10.6884L183 11.0952L180.413 11.502L179.987 13.9717L179.56 11.502L176.973 11.0952L179.56 10.6884L179.987 8.21875Z" fill="url(#paint9_linear_2164_1993)"/>
<path d="M181.414 9.73267L180.39 11.0952L181.414 12.4578L179.986 11.4806L178.559 12.4578L179.583 11.0952L178.559 9.73266L179.986 10.7098L181.414 9.73267Z" fill="url(#paint10_linear_2164_1993)"/>
<defs>
<linearGradient id="paint0_linear_2164_1993" x1="12.5" y1="6" x2="166.5" y2="63" gradientUnits="userSpaceOnUse">
<stop stop-color="#03C4FF"/>
<stop offset="1" stop-color="#2BFFB8"/>
</linearGradient>
<linearGradient id="paint1_linear_2164_1993" x1="72.7312" y1="13.5492" x2="70.1271" y2="10.9627" gradientUnits="userSpaceOnUse">
<stop stop-color="#03C4FF"/>
<stop offset="1" stop-color="#2BFFB8"/>
</linearGradient>
<linearGradient id="paint2_linear_2164_1993" x1="169.724" y1="1.77595" x2="178.661" y2="1.85302" gradientUnits="userSpaceOnUse">
<stop stop-color="#03C4FF"/>
<stop offset="1" stop-color="#2BFFB8"/>
</linearGradient>
<linearGradient id="paint3_linear_2164_1993" x1="173.486" y1="1.2225" x2="178.574" y2="5.42453" gradientUnits="userSpaceOnUse">
<stop stop-color="#03C4FF"/>
<stop offset="1" stop-color="#2BFFB8"/>
</linearGradient>
<linearGradient id="paint4_linear_2164_1993" x1="173.171" y1="14.1525" x2="175.709" y2="16.7453" gradientUnits="userSpaceOnUse">
<stop stop-color="#03C4FF"/>
<stop offset="1" stop-color="#2BFFB8"/>
</linearGradient>
<linearGradient id="paint5_linear_2164_1993" x1="2.07066" y1="1.39236" x2="11.2775" y2="1.49672" gradientUnits="userSpaceOnUse">
<stop stop-color="#03C4FF"/>
<stop offset="1" stop-color="#2BFFB8"/>
</linearGradient>
<linearGradient id="paint6_linear_2164_1993" x1="5.94677" y1="0.958569" x2="9.99499" y2="5.35256" gradientUnits="userSpaceOnUse">
<stop stop-color="#03C4FF"/>
<stop offset="1" stop-color="#2BFFB8"/>
</linearGradient>
<linearGradient id="paint7_linear_2164_1993" x1="0.071856" y1="7.54481" x2="4.40457" y2="7.59103" gradientUnits="userSpaceOnUse">
<stop stop-color="#03C4FF"/>
<stop offset="1" stop-color="#2BFFB8"/>
</linearGradient>
<linearGradient id="paint8_linear_2164_1993" x1="1.89616" y1="7.32767" x2="3.92661" y2="9.40191" gradientUnits="userSpaceOnUse">
<stop stop-color="#03C4FF"/>
<stop offset="1" stop-color="#2BFFB8"/>
</linearGradient>
<linearGradient id="paint9_linear_2164_1993" x1="177.072" y1="9.13249" x2="183.029" y2="9.19906" gradientUnits="userSpaceOnUse">
<stop stop-color="#03C4FF"/>
<stop offset="1" stop-color="#2BFFB8"/>
</linearGradient>
<linearGradient id="paint10_linear_2164_1993" x1="179.58" y1="8.84761" x2="182.239" y2="11.6938" gradientUnits="userSpaceOnUse">
<stop stop-color="#03C4FF"/>
<stop offset="1" stop-color="#2BFFB8"/>
</linearGradient>
</defs>
</svg>
